<svg width="21" height="17" viewBox="0 0 21 17" fill="none" xmlns="http://www.w3.org/2000/svg">
<path d="M19.5 3H15V2.25C15 1.65326 14.7629 1.08097 14.341 0.65901C13.919 0.237053 13.3467 0 12.75 0H8.25C7.65326 0 7.08097 0.237053 6.65901 0.65901C6.23705 1.08097 6 1.65326 6 2.25V3H1.5C1.10218 3 0.720644 3.15804 0.43934 3.43934C0.158035 3.72064 0 4.10218 0 4.5V15C0 15.3978 0.158035 15.7794 0.43934 16.0607C0.720644 16.342 1.10218 16.5 1.5 16.5H19.5C19.8978 16.5 20.2794 16.342 20.5607 16.0607C20.842 15.7794 21 15.3978 21 15V4.5C21 4.10218 20.842 3.72064 20.5607 3.43934C20.2794 3.15804 19.8978 3 19.5 3ZM7.5 2.25C7.5 2.05109 7.57902 1.86032 7.71967 1.71967C7.86032 1.57902 8.05109 1.5 8.25 1.5H12.75C12.9489 1.5 13.1397 1.57902 13.2803 1.71967C13.421 1.86032 13.5 2.05109 13.5 2.25V3H7.5V2.25ZM19.5 4.5V7.5H16.5V6.75C16.5 6.55109 16.421 6.36032 16.2803 6.21967C16.1397 6.07902 15.9489 6 15.75 6C15.5511 6 15.3603 6.07902 15.2197 6.21967C15.079 6.36032 15 6.55109 15 6.75V7.5H6V6.75C6 6.55109 5.92098 6.36032 5.78033 6.21967C5.63968 6.07902 5.44891 6 5.25 6C5.05109 6 4.86032 6.07902 4.71967 6.21967C4.57902 6.36032 4.5 6.55109 4.5 6.75V7.5H1.5V4.5H19.5ZM19.5 15H1.5V9H4.5V9.75C4.5 9.94891 4.57902 10.1397 4.71967 10.2803C4.86032 10.421 5.05109 10.5 5.25 10.5C5.44891 10.5 5.63968 10.421 5.78033 10.2803C5.92098 10.1397 6 9.94891 6 9.75V9H15V9.75C15 9.94891 15.079 10.1397 15.2197 10.2803C15.3603 10.421 15.5511 10.5 15.75 10.5C15.9489 10.5 16.1397 10.421 16.2803 10.2803C16.421 10.1397 16.5 9.94891 16.5 9.75V9H19.5V15Z" fill="#111111"/>
</svg>
