<svg width="22" height="21" viewBox="0 0 22 21" fill="none" xmlns="http://www.w3.org/2000/svg">
<path d="M20.75 19.75H0.75M0.75 8.75L8.876 2.25C9.40793 1.82449 10.0688 1.59267 10.75 1.59267C11.4312 1.59267 12.0921 1.82449 12.624 2.25L20.75 8.75M14.25 3.25V1.25C14.25 1.11739 14.3027 0.990215 14.3964 0.896447C14.4902 0.802679 14.6174 0.75 14.75 0.75H17.25C17.3826 0.75 17.5098 0.802679 17.6036 0.896447C17.6973 0.990215 17.75 1.11739 17.75 1.25V6.25M2.75 19.75V7.25M18.75 19.75V7.25" stroke="#4545FE" stroke-width="1.5" stroke-linecap="round"/>
<path d="M13.75 19.75V14.75C13.75 13.336 13.75 12.629 13.31 12.19C12.872 11.75 12.165 11.75 10.75 11.75C9.335 11.75 8.629 11.75 8.19 12.19C7.75 12.628 7.75 13.335 7.75 14.75V19.75M12.75 7.25C12.75 7.78043 12.5393 8.28914 12.1642 8.66421C11.7891 9.03929 11.2804 9.25 10.75 9.25C10.2196 9.25 9.71086 9.03929 9.33579 8.66421C8.96071 8.28914 8.75 7.78043 8.75 7.25C8.75 6.71957 8.96071 6.21086 9.33579 5.83579C9.71086 5.46071 10.2196 5.25 10.75 5.25C11.2804 5.25 11.7891 5.46071 12.1642 5.83579C12.5393 6.21086 12.75 6.71957 12.75 7.25Z" stroke="#4545FE" stroke-width="1.5"/>
</svg>
